<svg width="30" height="30" viewBox="0 0 24 24" xmlns="http://www.w3.org/2000/svg">
  <defs>
    <linearGradient id="discordGradient" x1="0%" y1="0%" x2="100%" y2="0%" gradientUnits="objectBoundingBox">
      <stop offset="0%" stop-color="#ffffff">
        <animate attributeName="stop-color" values="#ffffff;#a8d8ff;#ffffff" dur="4s" repeatCount="indefinite" />
      </stop>
      <stop offset="50%" stop-color="#a8d8ff">
        <animate attributeName="stop-color" values="#a8d8ff;#ffffff;#a8d8ff" dur="4s" repeatCount="indefinite" />
      </stop>
      <stop offset="100%" stop-color="#ffffff">
        <animate attributeName="stop-color" values="#ffffff;#a8d8ff;#ffffff" dur="4s" repeatCount="indefinite" />
      </stop>
    </linearGradient>
    <filter id="glow">
      <feGaussianBlur stdDeviation="1.5" result="coloredBlur"/>
      <feMerge>
        <feMergeNode in="coloredBlur"/>
        <feMergeNode in="SourceGraphic"/>
      </feMerge>
    </filter>
  </defs>
  <path d="M19.27 5.33C17.94 4.71 16.5 4.26 15 4c-.12.22-.26.52-.37.77-1.62-.24-3.23-.24-4.85 0-.11-.25-.25-.55-.36-.77-1.5.26-2.94.71-4.28 1.33-2.68 3.98-3.42 7.86-3.05 11.68 1.78 1.32 3.96 2.23 6.31 2.66.51-.69.96-1.43 1.34-2.21-.73-.27-1.43-.62-2.09-1.03.18-.13.35-.27.52-.41 1.65.77 3.45 1.19 5.3 1.19 1.85 0 3.65-.42 5.3-1.19.17.14.35.28.52.41-.66.41-1.36.76-2.09 1.03.38.78.83 1.52 1.34 2.21 2.35-.43 4.53-1.34 6.31-2.66.42-4.33-.72-8.15-3.05-11.68zM8.56 14.94c-1.07 0-1.95-1.01-1.95-2.24 0-1.23.86-2.24 1.95-2.24 1.09 0 1.97 1.01 1.95 2.24 0 1.23-.86 2.24-1.95 2.24zm6.95 0c-1.07 0-1.95-1.01-1.95-2.24 0-1.23.86-2.24 1.95-2.24 1.09 0 1.97 1.01 1.95 2.24 0 1.23-.86 2.24-1.95 2.24z" fill="url(#discordGradient)" filter="url(#glow)"/>
</svg>
